<?xml version="1.0" encoding="UTF-8" standalone="no"?>
<svg
   xmlns:dc="http://purl.org/dc/elements/1.1/"
   xmlns:cc="http://creativecommons.org/ns#"
   xmlns:rdf="http://www.w3.org/1999/02/22-rdf-syntax-ns#"
   xmlns:svg="http://www.w3.org/2000/svg"
   xmlns="http://www.w3.org/2000/svg"
   id="svg1657"
   version="1.1"
   viewBox="0 0 200 200"
   height="200"
   width="200">
  <defs
     id="defs1651" />
  <metadata
     id="metadata1654">
    <rdf:RDF>
      <cc:Work
         rdf:about="">
        <dc:format>image/svg+xml</dc:format>
        <dc:type
           rdf:resource="http://purl.org/dc/dcmitype/StillImage" />
        <dc:title></dc:title>
      </cc:Work>
    </rdf:RDF>
  </metadata>
  <path
     style="opacity:1;fill:#e3c79b;fill-opacity:1;stroke:none;stroke-width:8.53446579;stroke-linecap:round;stroke-linejoin:round;stroke-miterlimit:4;stroke-dasharray:none;stroke-dashoffset:0;stroke-opacity:1"
     d="m 161.7258,10 -18.2741,31.04124 -7.37249,12.52235 A 68.94444,67.613491 0 0 0 100.0001,43.50411 68.94444,67.613491 0 0 0 63.884503,53.62247 L 56.548499,41.16119 38.274401,10.11995 a 36.548858,35.843295 0 0 0 -13.377605,48.9631 36.548858,35.843295 0 0 0 17.415078,15.05513 68.94444,67.613491 0 0 0 -11.256214,36.97943 68.94444,67.613491 0 0 0 1.5104,13.70756 74.68981,73.247949 0 0 1 53.516111,52.50281 68.94444,67.613491 0 0 0 13.917929,1.40312 68.94444,67.613491 0 0 0 13.96001,-1.41358 74.68981,73.247949 0 0 1 53.48411,-52.53526 68.94444,67.613491 0 0 0 1.50032,-13.66465 A 68.94444,67.613491 0 0 0 157.60025,74.05673 36.548858,35.843295 0 0 0 175.10343,58.96256 36.548858,35.843295 0 0 0 161.7258,10 Z"
     id="path1597" />
  <path
     id="path1599"
     d="m 38.274401,10.11996 a 36.548858,35.843295 0 0 0 -13.377634,48.9631 36.548858,35.843295 0 0 0 17.415107,15.05513 68.94444,67.613491 0 0 0 -11.256214,36.97943 68.94444,67.613491 0 0 0 1.5104,13.70756 74.68981,73.247949 0 0 1 53.516111,52.50281 68.94444,67.613491 0 0 0 13.917929,1.40312 V 43.50413 A 68.94444,67.613491 0 0 0 63.884503,53.62248 L 56.548499,41.16121 Z"
     style="opacity:1;fill:#d7af70;fill-opacity:1;stroke:none;stroke-width:8.53446579;stroke-linecap:round;stroke-linejoin:round;stroke-miterlimit:4;stroke-dasharray:none;stroke-dashoffset:0;stroke-opacity:1" />
  <ellipse
     ry="16.903366"
     rx="22.98148"
     cy="173.09665"
     cx="100.0001"
     id="ellipse1601"
     style="opacity:1;fill:#423342;fill-opacity:1;stroke:none;stroke-width:0.85344654;stroke-linecap:round;stroke-linejoin:round;stroke-miterlimit:4;stroke-dasharray:none;stroke-dashoffset:0;stroke-opacity:1" />
  <path
     id="path1603"
     d="m 100.0001,43.50413 a 68.94444,67.613491 0 0 0 -7.155341,0.39506 l 4.298915,39.34657 a 2.8729723,2.8175105 0 0 0 5.712856,0 l 4.29161,-39.28217 a 68.94444,67.613491 0 0 0 -7.14804,-0.45946 z"
     style="color:#000000;font-style:normal;font-variant:normal;font-weight:normal;font-stretch:normal;font-size:medium;line-height:normal;font-family:sans-serif;font-variant-ligatures:normal;font-variant-position:normal;font-variant-caps:normal;font-variant-numeric:normal;font-variant-alternates:normal;font-feature-settings:normal;text-indent:0;text-align:start;text-decoration:none;text-decoration-line:none;text-decoration-style:solid;text-decoration-color:#000000;letter-spacing:normal;word-spacing:normal;text-transform:none;writing-mode:lr-tb;direction:ltr;text-orientation:mixed;dominant-baseline:auto;baseline-shift:baseline;text-anchor:start;white-space:normal;shape-padding:0;clip-rule:nonzero;display:inline;overflow:visible;visibility:visible;opacity:1;isolation:auto;mix-blend-mode:normal;color-interpolation:sRGB;color-interpolation-filters:linearRGB;solid-color:#000000;solid-opacity:1;vector-effect:none;fill:#a3875e;fill-opacity:1;fill-rule:nonzero;stroke:none;stroke-width:5.68964338;stroke-linecap:round;stroke-linejoin:round;stroke-miterlimit:4;stroke-dasharray:none;stroke-dashoffset:0;stroke-opacity:1;color-rendering:auto;image-rendering:auto;shape-rendering:auto;text-rendering:auto;enable-background:accumulate" />
  <ellipse
     style="opacity:1;fill:#ffffff;fill-opacity:1;stroke:none;stroke-width:8.53446579;stroke-linecap:round;stroke-linejoin:round;stroke-miterlimit:4;stroke-dasharray:none;stroke-dashoffset:0;stroke-opacity:1"
     id="ellipse1605"
     cx="100.0001"
     cy="167.46219"
     rx="10.054398"
     ry="4.2258363" />
  <ellipse
     style="opacity:1;fill:#423342;fill-opacity:1;stroke:none;stroke-width:0.96012706;stroke-linecap:round;stroke-linejoin:round;stroke-miterlimit:4;stroke-dasharray:none;stroke-dashoffset:0;stroke-opacity:1"
     id="circle1607"
     cx="75.582275"
     cy="109.70901"
     rx="12.927079"
     ry="12.677526" />
  <ellipse
     ry="2.6521096"
     rx="5.6483583"
     cy="121.35008"
     cx="43.796852"
     id="ellipse1609"
     style="opacity:1;fill:#ffffff;fill-opacity:1;stroke:none;stroke-width:5.06755972;stroke-linecap:round;stroke-linejoin:round;stroke-miterlimit:4;stroke-dasharray:none;stroke-dashoffset:0;stroke-opacity:1"
     transform="matrix(0.96716525,-0.25414834,0.26356308,0.96464216,0,0)" />
  <ellipse
     cy="109.00472"
     cx="124.92064"
     id="circle1611"
     style="opacity:1;fill:#423342;fill-opacity:1;stroke:none;stroke-width:0.96012706;stroke-linecap:round;stroke-linejoin:round;stroke-miterlimit:4;stroke-dasharray:none;stroke-dashoffset:0;stroke-opacity:1"
     rx="12.927079"
     ry="12.677526" />
  <ellipse
     transform="matrix(0.96716525,-0.25414834,0.26356308,0.96464216,0,0)"
     style="opacity:1;fill:#ffffff;fill-opacity:1;stroke:none;stroke-width:5.06755972;stroke-linecap:round;stroke-linejoin:round;stroke-miterlimit:4;stroke-dasharray:none;stroke-dashoffset:0;stroke-opacity:1"
     id="ellipse1613"
     cx="91.578613"
     cy="133.20876"
     rx="5.6483583"
     ry="2.6521096" />
  <path
     style="opacity:1;fill:#a3875e;fill-opacity:1;stroke:none;stroke-width:9.14786625;stroke-linecap:round;stroke-linejoin:round;stroke-miterlimit:4;stroke-dasharray:none;stroke-dashoffset:0;stroke-opacity:1"
     id="path1615"
     d="m -77.949889,17.427165 a 13.655097,13.788827 0 0 1 13.655097,-13.788826 13.655097,13.788827 0 0 1 13.655097,13.788827 l -13.655097,0 z"
     transform="matrix(-0.50732735,-0.86175342,0.87019456,-0.49270826,0,0)" />
  <path
     transform="matrix(0.50732735,-0.86175342,-0.87019456,-0.49270826,0,0)"
     d="m 22.02147,-157.42415 a 13.655097,13.788827 0 0 1 13.655097,-13.78883 13.655097,13.788827 0 0 1 13.655097,13.78883 H 35.676567 Z"
     id="path1617"
     style="opacity:1;fill:#a3875e;fill-opacity:1;stroke:none;stroke-width:9.14786625;stroke-linecap:round;stroke-linejoin:round;stroke-miterlimit:4;stroke-dasharray:none;stroke-dashoffset:0;stroke-opacity:1" />
</svg>
